<svg width="82" height="82" viewBox="0 0 82 82" fill="none" xmlns="http://www.w3.org/2000/svg">
<path d="M44.1405 10.1863C27.2652 10.1863 13.5817 23.8698 13.5817 40.745H3.39545L16.6036 53.9532L16.8413 54.4286L30.5588 40.745H20.3725C20.3725 27.6048 31.0002 16.9771 44.1405 16.9771C57.2808 16.9771 67.9084 27.6048 67.9084 40.745C67.9084 53.8853 57.2808 64.513 44.1405 64.513C37.5873 64.513 31.6453 61.8306 27.3671 57.5184L22.5456 62.3399C28.0801 67.8744 35.6859 71.3038 44.1405 71.3038C61.0157 71.3038 74.6993 57.6203 74.6993 40.745C74.6993 23.8698 61.0157 10.1863 44.1405 10.1863ZM40.7451 27.1634V44.1405L55.1756 52.6969L57.7901 48.3508L45.8382 41.2543V27.1634H40.7451Z" fill="white"/>
</svg>
