<svg width="61" height="54" viewBox="0 0 61 54" fill="none" xmlns="http://www.w3.org/2000/svg">
<path fill-rule="evenodd" clip-rule="evenodd" d="M4.89212 21.8094C1.35024 16.1249 0 11.5422 0 8.44693C0 5.35161 0.859069 4.46384 1.73081 3.74669C2.60248 3.02947 6.53334 0.884126 7.20307 0.483965C7.87288 0.0838736 10.4291 -0.693656 12.0321 1.34768C13.6352 3.38909 16.6539 7.48777 18.7351 10.2106C22.0009 14.0672 19.3991 15.7602 18.5587 16.7749C17.0123 18.6421 16.1218 19.1027 16.1218 21.3955C16.1218 23.6883 23.3602 30.2023 25.091 31.8072C26.8086 33.4 34.021 38.9971 36.2559 39.2964C38.5065 39.5978 41.5194 37.4886 42.16 36.9537C45.4188 34.7388 47.2583 36.418 48.7593 37.1479C50.2603 37.8778 57.0424 41.6189 59.1441 42.8799C61.1221 44.1409 60.9985 46.0898 60.9985 46.0898C60.9985 46.0898 56.9188 51.8218 56.4243 52.5097C55.8061 53.3122 54.3225 54 50.9847 54C47.6467 54 44.0802 53.4603 35.6044 49.3338C28.6692 45.9574 22.058 40.6702 18.5964 37.5749C15.0112 34.4796 8.93792 28.3027 4.89212 21.8094Z" fill="white"/>
</svg>
