<svg width="82" height="82" viewBox="0 0 82 82" fill="none" xmlns="http://www.w3.org/2000/svg">
<path d="M81.4901 40.745C81.4901 18.2945 63.1956 0 40.745 0C18.2945 0 0 18.2945 0 40.745C0 52.5611 5.09313 63.1956 13.1606 70.6519C13.1606 70.6926 13.1606 70.6926 13.1199 70.7334C13.5274 71.1408 14.0163 71.4668 14.4237 71.8335C14.6682 72.0372 14.8719 72.241 15.1164 72.4039C15.8498 73.0151 16.6647 73.5855 17.4389 74.156C17.7241 74.3597 17.9686 74.5227 18.2538 74.7264C19.0279 75.2561 19.8428 75.745 20.6985 76.1932C20.9837 76.3562 21.3097 76.5599 21.5949 76.7229C22.4098 77.1711 23.2654 77.5786 24.1618 77.9453C24.4878 78.1082 24.8137 78.2712 25.1397 78.3935C26.0361 78.7602 26.9325 79.0861 27.8289 79.3713C28.1548 79.4936 28.4808 79.6158 28.8067 79.6973C29.7846 79.9825 30.7625 80.227 31.7404 80.4715C32.0256 80.5529 32.3108 80.6344 32.6368 80.6752C33.7776 80.9196 34.9185 81.0826 36.1001 81.2049C36.2631 81.2049 36.4261 81.2456 36.589 81.2864C37.9744 81.4086 39.3597 81.4901 40.745 81.4901C42.1304 81.4901 43.5157 81.4086 44.8603 81.2864C45.0233 81.2864 45.1862 81.2456 45.3492 81.2049C46.5308 81.0826 47.6717 80.9196 48.8126 80.6752C49.0978 80.6344 49.383 80.5122 49.7089 80.4715C50.6868 80.227 51.7055 80.0233 52.6426 79.6973C52.9686 79.5751 53.2945 79.4528 53.6205 79.3713C54.5169 79.0454 55.454 78.7602 56.3096 78.3935C56.6356 78.2712 56.9616 78.1082 57.2875 77.9453C58.1432 77.5786 58.9988 77.1711 59.8545 76.7229C60.1804 76.5599 60.4656 76.3562 60.7509 76.1932C61.5658 75.7043 62.3807 75.2561 63.1956 74.7264C63.4808 74.5634 63.7252 74.3597 64.0105 74.156C64.8254 73.5855 65.5995 73.0151 66.3329 72.4039C66.5774 72.2002 66.7811 71.9965 67.0256 71.8335C67.4738 71.4668 67.922 71.1001 68.3294 70.7334C68.3294 70.6926 68.3294 70.6926 68.2887 70.6519C76.3969 63.1956 81.4901 52.5611 81.4901 40.745ZM60.8731 60.9953C49.8312 53.5797 31.7404 53.5797 20.617 60.9953C18.8242 62.1769 17.3574 63.5623 16.135 65.0698C9.94179 58.7951 6.11176 50.1979 6.11176 40.745C6.11176 21.6356 21.6356 6.11176 40.745 6.11176C59.8545 6.11176 75.3783 21.6356 75.3783 40.745C75.3783 50.1979 71.5483 58.7951 65.355 65.0698C64.1734 63.5623 62.6659 62.1769 60.8731 60.9953Z" fill="white"/>
<path d="M40.745 20.086C32.3108 20.086 25.4656 26.9312 25.4656 35.3655C25.4656 43.6367 31.9441 50.3596 40.5413 50.6041H40.908H41.1932H41.2747C49.5052 50.3189 55.9837 43.6367 56.0244 35.3655C56.0244 26.9312 49.1792 20.086 40.745 20.086Z" fill="white"/>
</svg>
